<!--?xml version="1.0" encoding="UTF-8"?-->
<svg width="256" height="256" viewBox="0 0 256 256" xmlns="http://www.w3.org/2000/svg" role="img" aria-labelledby="title">
  <title>LangCen cap</title>
  <!-- Uses currentColor so Tailwind text-* utilities control color -->
  <g fill="currentColor">
    <!-- mortar board -->
    <path d="M128 36c-2.1 0-4.2.4-6.1 1.3L27.7 79.3c-3.7 1.7-3.7 7 0 8.7l94.2 42.1c3.8 1.7 8.3 1.7 12.1 0l94.2-42.1c3.7-1.7 3.7-7 0-8.7l-94.2-42C132.2 36.4 130.1 36 128 36Z"></path>
    <!-- tassel cord -->
    <path d="M210 96v45.5c0 4.4 3.6 8 8 8h2a8 8 0 0 0 8-8V96h-18z"></path>
    <!-- tassel end -->
    <circle cx="228" cy="151.5" r="7.5"></circle>
    <!-- cap band / top edge (subtle) -->
    <path d="M45 110v24.5c0 6.9 4 13.1 10.2 16l60.4 27c8.2 3.7 17.7 3.7 25.9 0l60.4-27c6.2-2.8 10.2-9.1 10.2-16V110l-78.5 35.1c-3.8 1.7-8.3 1.7-12.1 0L45 110z" opacity=".09"></path>
    <!-- under-cap (shadow) -->
    <path d="M58 131v22.5c0 7.3 4.3 13.9 11.1 16.8l52.8 22.9c9.1 3.9 19.4 3.9 28.5 0l52.8-22.9c6.8-2.9 11.1-9.5 11.1-16.8V131l-68.5 30.6c-6.3 2.8-13.6 2.8-19.9 0L58 131z" opacity=".12"></path>
  </g>
</svg>
